<svg width="25" height="18" viewBox="0 0 25 18" fill="none" xmlns="http://www.w3.org/2000/svg">
<path d="M20.5331 7.42266L20.3216 7.9746L20.901 8.09166C22.9533 8.50633 24.5 10.3244 24.5 12.5C24.5 14.9856 22.4856 17 20 17H5.625C2.79567 17 0.5 14.7043 0.5 11.875C0.5 9.64065 1.9301 7.73941 3.92374 7.03807L4.2711 6.91588L4.25747 6.5479C4.25351 6.44089 4.25 6.34467 4.25 6.25C4.25 3.07302 6.82302 0.5 10 0.5C12.1304 0.5 13.9885 1.65603 14.9849 3.38273L15.2523 3.84612L15.6966 3.548C16.2107 3.20299 16.833 3 17.5 3C19.2942 3 20.75 4.45583 20.75 6.25C20.75 6.66353 20.6721 7.06003 20.5331 7.42266Z" stroke="#FC671A"/>
</svg>
