<svg width="272" height="133" viewBox="0 0 272 133" fill="none" xmlns="http://www.w3.org/2000/svg">
<rect width="272" height="133" rx="20" fill="#B5B6B7"/>
<rect x="35" y="33" width="29" height="19" rx="6" fill="#6F767E"/>
<ellipse cx="17.5" cy="73" rx="2.5" ry="3" fill="#FCFCFC"/>
<ellipse cx="17.5" cy="73" rx="2.5" ry="3" fill="#FCFCFC"/>
<ellipse cx="17.5" cy="73" rx="2.5" ry="3" fill="#FCFCFC"/>
<ellipse cx="17.5" cy="73" rx="2.5" ry="3" fill="#FCFCFC"/>
<ellipse cx="17.5" cy="73" rx="2.5" ry="3" fill="#FCFCFC"/>
<ellipse cx="83.5" cy="73" rx="2.5" ry="3" fill="#FCFCFC"/>
<ellipse cx="83.5" cy="73" rx="2.5" ry="3" fill="#FCFCFC"/>
<ellipse cx="83.5" cy="73" rx="2.5" ry="3" fill="#FCFCFC"/>
<ellipse cx="83.5" cy="73" rx="2.5" ry="3" fill="#FCFCFC"/>
<ellipse cx="83.5" cy="73" rx="2.5" ry="3" fill="#FCFCFC"/>
<ellipse cx="149.5" cy="73" rx="2.5" ry="3" fill="#FCFCFC"/>
<ellipse cx="149.5" cy="73" rx="2.5" ry="3" fill="#FCFCFC"/>
<ellipse cx="149.5" cy="73" rx="2.5" ry="3" fill="#FCFCFC"/>
<ellipse cx="149.5" cy="73" rx="2.5" ry="3" fill="#FCFCFC"/>
<ellipse cx="149.5" cy="73" rx="2.5" ry="3" fill="#FCFCFC"/>
<ellipse cx="215.5" cy="73" rx="2.5" ry="3" fill="#FCFCFC"/>
<ellipse cx="215.5" cy="73" rx="2.5" ry="3" fill="#FCFCFC"/>
<ellipse cx="215.5" cy="73" rx="2.5" ry="3" fill="#FCFCFC"/>
<ellipse cx="215.5" cy="73" rx="2.5" ry="3" fill="#FCFCFC"/>
<ellipse cx="215.5" cy="73" rx="2.5" ry="3" fill="#FCFCFC"/>
<ellipse cx="30.5" cy="73" rx="2.5" ry="3" fill="#FCFCFC"/>
<ellipse cx="30.5" cy="73" rx="2.5" ry="3" fill="#FCFCFC"/>
<ellipse cx="30.5" cy="73" rx="2.5" ry="3" fill="#FCFCFC"/>
<ellipse cx="30.5" cy="73" rx="2.5" ry="3" fill="#FCFCFC"/>
<ellipse cx="30.5" cy="73" rx="2.5" ry="3" fill="#FCFCFC"/>
<circle cx="97" cy="73" r="3" fill="#FCFCFC"/>
<circle cx="97" cy="73" r="3" fill="#FCFCFC"/>
<circle cx="97" cy="73" r="3" fill="#FCFCFC"/>
<circle cx="97" cy="73" r="3" fill="#FCFCFC"/>
<circle cx="97" cy="73" r="3" fill="#FCFCFC"/>
<circle cx="163" cy="73" r="3" fill="#FCFCFC"/>
<circle cx="163" cy="73" r="3" fill="#FCFCFC"/>
<circle cx="163" cy="73" r="3" fill="#FCFCFC"/>
<circle cx="163" cy="73" r="3" fill="#FCFCFC"/>
<circle cx="163" cy="73" r="3" fill="#FCFCFC"/>
<circle cx="229" cy="73" r="3" fill="#FCFCFC"/>
<circle cx="229" cy="73" r="3" fill="#FCFCFC"/>
<circle cx="229" cy="73" r="3" fill="#FCFCFC"/>
<circle cx="229" cy="73" r="3" fill="#FCFCFC"/>
<circle cx="229" cy="73" r="3" fill="#FCFCFC"/>
<circle cx="44" cy="73" r="3" fill="#FCFCFC"/>
<circle cx="44" cy="73" r="3" fill="#FCFCFC"/>
<circle cx="44" cy="73" r="3" fill="#FCFCFC"/>
<circle cx="44" cy="73" r="3" fill="#FCFCFC"/>
<circle cx="44" cy="73" r="3" fill="#FCFCFC"/>
<circle cx="110" cy="73" r="3" fill="#FCFCFC"/>
<circle cx="110" cy="73" r="3" fill="#FCFCFC"/>
<circle cx="110" cy="73" r="3" fill="#FCFCFC"/>
<circle cx="110" cy="73" r="3" fill="#FCFCFC"/>
<circle cx="110" cy="73" r="3" fill="#FCFCFC"/>
<circle cx="176" cy="73" r="3" fill="#FCFCFC"/>
<circle cx="176" cy="73" r="3" fill="#FCFCFC"/>
<circle cx="176" cy="73" r="3" fill="#FCFCFC"/>
<circle cx="176" cy="73" r="3" fill="#FCFCFC"/>
<circle cx="176" cy="73" r="3" fill="#FCFCFC"/>
<ellipse cx="242.5" cy="73" rx="2.5" ry="3" fill="#FCFCFC"/>
<ellipse cx="242.5" cy="73" rx="2.5" ry="3" fill="#FCFCFC"/>
<ellipse cx="242.5" cy="73" rx="2.5" ry="3" fill="#FCFCFC"/>
<ellipse cx="242.5" cy="73" rx="2.5" ry="3" fill="#FCFCFC"/>
<ellipse cx="242.5" cy="73" rx="2.5" ry="3" fill="#FCFCFC"/>
<ellipse cx="194.5" cy="108" rx="2.5" ry="3" fill="#FCFCFC"/>
<ellipse cx="194.5" cy="108" rx="2.5" ry="3" fill="#FCFCFC"/>
<ellipse cx="194.5" cy="108" rx="2.5" ry="3" fill="#FCFCFC"/>
<ellipse cx="194.5" cy="108" rx="2.5" ry="3" fill="#FCFCFC"/>
<ellipse cx="194.5" cy="108" rx="2.5" ry="3" fill="#FCFCFC"/>
<ellipse cx="57.5" cy="73" rx="2.5" ry="3" fill="#FCFCFC"/>
<ellipse cx="57.5" cy="73" rx="2.5" ry="3" fill="#FCFCFC"/>
<ellipse cx="57.5" cy="73" rx="2.5" ry="3" fill="#FCFCFC"/>
<ellipse cx="57.5" cy="73" rx="2.5" ry="3" fill="#FCFCFC"/>
<ellipse cx="57.5" cy="73" rx="2.5" ry="3" fill="#FCFCFC"/>
<ellipse cx="123.5" cy="73" rx="2.5" ry="3" fill="#FCFCFC"/>
<ellipse cx="123.5" cy="73" rx="2.5" ry="3" fill="#FCFCFC"/>
<ellipse cx="123.5" cy="73" rx="2.5" ry="3" fill="#FCFCFC"/>
<ellipse cx="123.5" cy="73" rx="2.5" ry="3" fill="#FCFCFC"/>
<ellipse cx="123.5" cy="73" rx="2.5" ry="3" fill="#FCFCFC"/>
<ellipse cx="189.5" cy="73" rx="2.5" ry="3" fill="#FCFCFC"/>
<ellipse cx="189.5" cy="73" rx="2.5" ry="3" fill="#FCFCFC"/>
<ellipse cx="189.5" cy="73" rx="2.5" ry="3" fill="#FCFCFC"/>
<ellipse cx="189.5" cy="73" rx="2.5" ry="3" fill="#FCFCFC"/>
<ellipse cx="189.5" cy="73" rx="2.5" ry="3" fill="#FCFCFC"/>
<ellipse cx="255.5" cy="73" rx="2.5" ry="3" fill="#FCFCFC"/>
<ellipse cx="255.5" cy="73" rx="2.5" ry="3" fill="#FCFCFC"/>
<ellipse cx="255.5" cy="73" rx="2.5" ry="3" fill="#FCFCFC"/>
<ellipse cx="255.5" cy="73" rx="2.5" ry="3" fill="#FCFCFC"/>
<ellipse cx="255.5" cy="73" rx="2.5" ry="3" fill="#FCFCFC"/>
<ellipse cx="207.5" cy="108" rx="2.5" ry="3" fill="#FCFCFC"/>
<ellipse cx="207.5" cy="108" rx="2.5" ry="3" fill="#FCFCFC"/>
<ellipse cx="207.5" cy="108" rx="2.5" ry="3" fill="#FCFCFC"/>
<ellipse cx="207.5" cy="108" rx="2.5" ry="3" fill="#FCFCFC"/>
<ellipse cx="207.5" cy="108" rx="2.5" ry="3" fill="#FCFCFC"/>
<ellipse cx="222.5" cy="108" rx="2.5" ry="3" fill="#FCFCFC"/>
<ellipse cx="222.5" cy="108" rx="2.5" ry="3" fill="#FCFCFC"/>
<ellipse cx="222.5" cy="108" rx="2.5" ry="3" fill="#FCFCFC"/>
<ellipse cx="222.5" cy="108" rx="2.5" ry="3" fill="#FCFCFC"/>
<ellipse cx="222.5" cy="108" rx="2.5" ry="3" fill="#FCFCFC"/>
<ellipse cx="235.5" cy="108" rx="2.5" ry="3" fill="#FCFCFC"/>
<ellipse cx="235.5" cy="108" rx="2.5" ry="3" fill="#FCFCFC"/>
<ellipse cx="235.5" cy="108" rx="2.5" ry="3" fill="#FCFCFC"/>
<ellipse cx="235.5" cy="108" rx="2.5" ry="3" fill="#FCFCFC"/>
<ellipse cx="235.5" cy="108" rx="2.5" ry="3" fill="#FCFCFC"/>
<path d="M30.73 105.834H35.784V107.038H30.73V105.834ZM30.87 111H29.47V101.2H36.386V102.418H30.87V111ZM42.4167 111.112C41.1287 111.112 40.1161 110.743 39.3787 110.006C38.6414 109.269 38.2727 108.191 38.2727 106.772V101.2H39.6727V106.716C39.6727 107.808 39.9107 108.606 40.3867 109.11C40.8721 109.614 41.5534 109.866 42.4307 109.866C43.3174 109.866 43.9987 109.614 44.4747 109.11C44.9601 108.606 45.2027 107.808 45.2027 106.716V101.2H46.5607V106.772C46.5607 108.191 46.1921 109.269 45.4547 110.006C44.7267 110.743 43.7141 111.112 42.4167 111.112ZM49.4309 111V101.2H50.8309V109.782H56.1369V111H49.4309ZM57.7434 111V101.2H59.1434V109.782H64.4494V111H57.7434ZM69.8157 111V101.2H70.9637L77.4457 109.25H76.8437V101.2H78.2437V111H77.0957L70.6137 102.95H71.2157V111H69.8157ZM79.693 111L84.131 101.2H85.517L89.969 111H88.499L84.537 101.984H85.097L81.135 111H79.693ZM81.583 108.55L81.961 107.43H87.477L87.883 108.55H81.583ZM91.4309 111V101.2H92.5789L96.9749 108.606H96.3589L100.699 101.2H101.847L101.861 111H100.517L100.503 103.314H100.825L96.9609 109.81H96.3169L92.4249 103.314H92.7749V111H91.4309ZM106.076 105.428H111.116V106.618H106.076V105.428ZM106.202 109.782H111.914V111H104.802V101.2H111.718V102.418H106.202V109.782Z" fill="#6F767E"/>
<path d="M212.608 114.4L217.228 101.212H218.446L213.826 114.4H212.608Z" fill="white"/>
</svg>
