<svg width="200" height="250" viewBox="0 0 200 250" fill="none" xmlns="http://www.w3.org/2000/svg">
<rect x="0.5" y="0.5" width="199" height="249" rx="4.5" stroke="black" stroke-opacity="0.25"/>
<path d="M55.4164 160L59.2204 151.6H60.4084L64.2244 160H62.9644L59.5684 152.272H60.0484L56.6524 160H55.4164ZM57.0364 157.9L57.3604 156.94H62.0884L62.4364 157.9H57.0364ZM67.7589 160.072C67.1429 160.072 66.5909 159.936 66.1029 159.664C65.6229 159.392 65.2429 159.012 64.9629 158.524C64.6829 158.036 64.5429 157.468 64.5429 156.82C64.5429 156.172 64.6829 155.608 64.9629 155.128C65.2429 154.64 65.6229 154.26 66.1029 153.988C66.5909 153.716 67.1429 153.58 67.7589 153.58C68.2949 153.58 68.7789 153.7 69.2109 153.94C69.6429 154.18 69.9869 154.54 70.2429 155.02C70.5069 155.5 70.6389 156.1 70.6389 156.82C70.6389 157.54 70.5109 158.14 70.2549 158.62C70.0069 159.1 69.6669 159.464 69.2349 159.712C68.8029 159.952 68.3109 160.072 67.7589 160.072ZM67.8549 159.064C68.2549 159.064 68.6149 158.972 68.9349 158.788C69.2629 158.604 69.5189 158.344 69.7029 158.008C69.8949 157.664 69.9909 157.268 69.9909 156.82C69.9909 156.364 69.8949 155.972 69.7029 155.644C69.5189 155.308 69.2629 155.048 68.9349 154.864C68.6149 154.68 68.2549 154.588 67.8549 154.588C67.4469 154.588 67.0829 154.68 66.7629 154.864C66.4429 155.048 66.1869 155.308 65.9949 155.644C65.8029 155.972 65.7069 156.364 65.7069 156.82C65.7069 157.268 65.8029 157.664 65.9949 158.008C66.1869 158.344 66.4429 158.604 66.7629 158.788C67.0829 158.972 67.4469 159.064 67.8549 159.064ZM70.0269 160V158.284L70.0989 156.808L69.9789 155.332V151.096H71.1309V160H70.0269ZM73.1906 160V153.64H74.3426V160H73.1906ZM73.7666 152.416C73.5426 152.416 73.3546 152.344 73.2026 152.2C73.0586 152.056 72.9866 151.88 72.9866 151.672C72.9866 151.456 73.0586 151.276 73.2026 151.132C73.3546 150.988 73.5426 150.916 73.7666 150.916C73.9906 150.916 74.1746 150.988 74.3186 151.132C74.4706 151.268 74.5466 151.44 74.5466 151.648C74.5466 151.864 74.4746 152.048 74.3306 152.2C74.1866 152.344 73.9986 152.416 73.7666 152.416ZM79.1942 160.072C78.5462 160.072 77.9662 159.932 77.4542 159.652C76.9502 159.372 76.5542 158.988 76.2662 158.5C75.9782 158.012 75.8342 157.452 75.8342 156.82C75.8342 156.188 75.9782 155.628 76.2662 155.14C76.5542 154.652 76.9502 154.272 77.4542 154C77.9662 153.72 78.5462 153.58 79.1942 153.58C79.7702 153.58 80.2822 153.696 80.7302 153.928C81.1862 154.152 81.5382 154.488 81.7862 154.936L80.9102 155.5C80.7022 155.188 80.4462 154.96 80.1422 154.816C79.8462 154.664 79.5262 154.588 79.1822 154.588C78.7662 154.588 78.3942 154.68 78.0662 154.864C77.7382 155.048 77.4782 155.308 77.2862 155.644C77.0942 155.972 76.9982 156.364 76.9982 156.82C76.9982 157.276 77.0942 157.672 77.2862 158.008C77.4782 158.344 77.7382 158.604 78.0662 158.788C78.3942 158.972 78.7662 159.064 79.1822 159.064C79.5262 159.064 79.8462 158.992 80.1422 158.848C80.4462 158.696 80.7022 158.464 80.9102 158.152L81.7862 158.704C81.5382 159.144 81.1862 159.484 80.7302 159.724C80.2822 159.956 79.7702 160.072 79.1942 160.072ZM83.0756 160V153.64H84.2276V160H83.0756ZM83.6516 152.416C83.4276 152.416 83.2396 152.344 83.0876 152.2C82.9436 152.056 82.8716 151.88 82.8716 151.672C82.8716 151.456 82.9436 151.276 83.0876 151.132C83.2396 150.988 83.4276 150.916 83.6516 150.916C83.8756 150.916 84.0596 150.988 84.2036 151.132C84.3556 151.268 84.4316 151.44 84.4316 151.648C84.4316 151.864 84.3596 152.048 84.2156 152.2C84.0716 152.344 83.8836 152.416 83.6516 152.416ZM89.0312 160.072C88.3912 160.072 87.8232 159.932 87.3272 159.652C86.8312 159.372 86.4392 158.988 86.1512 158.5C85.8632 158.004 85.7192 157.444 85.7192 156.82C85.7192 156.188 85.8632 155.628 86.1512 155.14C86.4392 154.652 86.8312 154.272 87.3272 154C87.8232 153.72 88.3912 153.58 89.0312 153.58C89.6632 153.58 90.2272 153.72 90.7232 154C91.2272 154.272 91.6192 154.652 91.8992 155.14C92.1872 155.62 92.3312 156.18 92.3312 156.82C92.3312 157.452 92.1872 158.012 91.8992 158.5C91.6192 158.988 91.2272 159.372 90.7232 159.652C90.2272 159.932 89.6632 160.072 89.0312 160.072ZM89.0312 159.064C89.4392 159.064 89.8032 158.972 90.1232 158.788C90.4512 158.604 90.7072 158.344 90.8912 158.008C91.0752 157.664 91.1672 157.268 91.1672 156.82C91.1672 156.364 91.0752 155.972 90.8912 155.644C90.7072 155.308 90.4512 155.048 90.1232 154.864C89.8032 154.68 89.4392 154.588 89.0312 154.588C88.6232 154.588 88.2592 154.68 87.9392 154.864C87.6192 155.048 87.3632 155.308 87.1712 155.644C86.9792 155.972 86.8832 156.364 86.8832 156.82C86.8832 157.268 86.9792 157.664 87.1712 158.008C87.3632 158.344 87.6192 158.604 87.9392 158.788C88.2592 158.972 88.6232 159.064 89.0312 159.064ZM97.2003 153.58C97.7203 153.58 98.1763 153.68 98.5683 153.88C98.9683 154.08 99.2803 154.384 99.5043 154.792C99.7283 155.2 99.8403 155.716 99.8403 156.34V160H98.6883V156.472C98.6883 155.856 98.5363 155.392 98.2323 155.08C97.9363 154.768 97.5163 154.612 96.9723 154.612C96.5643 154.612 96.2083 154.692 95.9043 154.852C95.6003 155.012 95.3643 155.248 95.1963 155.56C95.0363 155.872 94.9563 156.26 94.9563 156.724V160H93.8043V153.64H94.9083V155.356L94.7283 154.9C94.9363 154.484 95.2563 154.16 95.6883 153.928C96.1203 153.696 96.6243 153.58 97.2003 153.58ZM105.8 160V158.656L105.74 158.404V156.112C105.74 155.624 105.596 155.248 105.308 154.984C105.028 154.712 104.604 154.576 104.036 154.576C103.66 154.576 103.292 154.64 102.932 154.768C102.572 154.888 102.268 155.052 102.02 155.26L101.54 154.396C101.868 154.132 102.26 153.932 102.716 153.796C103.18 153.652 103.664 153.58 104.168 153.58C105.04 153.58 105.712 153.792 106.184 154.216C106.656 154.64 106.892 155.288 106.892 156.16V160H105.8ZM103.712 160.072C103.24 160.072 102.824 159.992 102.464 159.832C102.112 159.672 101.84 159.452 101.648 159.172C101.456 158.884 101.36 158.56 101.36 158.2C101.36 157.856 101.44 157.544 101.6 157.264C101.768 156.984 102.036 156.76 102.404 156.592C102.78 156.424 103.284 156.34 103.916 156.34H105.932V157.168H103.964C103.388 157.168 103 157.264 102.8 157.456C102.6 157.648 102.5 157.88 102.5 158.152C102.5 158.464 102.624 158.716 102.872 158.908C103.12 159.092 103.464 159.184 103.904 159.184C104.336 159.184 104.712 159.088 105.032 158.896C105.36 158.704 105.596 158.424 105.74 158.056L105.968 158.848C105.816 159.224 105.548 159.524 105.164 159.748C104.78 159.964 104.296 160.072 103.712 160.072ZM108.904 160V153.64H110.008V155.368L109.9 154.936C110.076 154.496 110.372 154.16 110.788 153.928C111.204 153.696 111.716 153.58 112.324 153.58V154.696C112.276 154.688 112.228 154.684 112.18 154.684C112.14 154.684 112.1 154.684 112.06 154.684C111.444 154.684 110.956 154.868 110.596 155.236C110.236 155.604 110.056 156.136 110.056 156.832V160H108.904ZM124.765 153.58C125.277 153.58 125.729 153.68 126.121 153.88C126.513 154.08 126.817 154.384 127.033 154.792C127.257 155.2 127.369 155.716 127.369 156.34V160H126.217V156.472C126.217 155.856 126.073 155.392 125.785 155.08C125.497 154.768 125.093 154.612 124.573 154.612C124.189 154.612 123.853 154.692 123.565 154.852C123.277 155.012 123.053 155.248 122.893 155.56C122.741 155.872 122.665 156.26 122.665 156.724V160H121.513V156.472C121.513 155.856 121.369 155.392 121.081 155.08C120.801 154.768 120.397 154.612 119.869 154.612C119.493 154.612 119.161 154.692 118.873 154.852C118.585 155.012 118.361 155.248 118.201 155.56C118.041 155.872 117.961 156.26 117.961 156.724V160H116.809V153.64H117.913V155.332L117.733 154.9C117.933 154.484 118.241 154.16 118.657 153.928C119.073 153.696 119.557 153.58 120.109 153.58C120.717 153.58 121.241 153.732 121.681 154.036C122.121 154.332 122.409 154.784 122.545 155.392L122.077 155.2C122.269 154.712 122.605 154.32 123.085 154.024C123.565 153.728 124.125 153.58 124.765 153.58ZM133.316 160V158.656L133.256 158.404V156.112C133.256 155.624 133.112 155.248 132.824 154.984C132.544 154.712 132.12 154.576 131.552 154.576C131.176 154.576 130.808 154.64 130.448 154.768C130.088 154.888 129.784 155.052 129.536 155.26L129.056 154.396C129.384 154.132 129.776 153.932 130.232 153.796C130.696 153.652 131.18 153.58 131.684 153.58C132.556 153.58 133.228 153.792 133.7 154.216C134.172 154.64 134.408 155.288 134.408 156.16V160H133.316ZM131.228 160.072C130.756 160.072 130.34 159.992 129.98 159.832C129.628 159.672 129.356 159.452 129.164 159.172C128.972 158.884 128.876 158.56 128.876 158.2C128.876 157.856 128.956 157.544 129.116 157.264C129.284 156.984 129.552 156.76 129.92 156.592C130.296 156.424 130.8 156.34 131.432 156.34H133.448V157.168H131.48C130.904 157.168 130.516 157.264 130.316 157.456C130.116 157.648 130.016 157.88 130.016 158.152C130.016 158.464 130.14 158.716 130.388 158.908C130.636 159.092 130.98 159.184 131.42 159.184C131.852 159.184 132.228 159.088 132.548 158.896C132.876 158.704 133.112 158.424 133.256 158.056L133.484 158.848C133.332 159.224 133.064 159.524 132.68 159.748C132.296 159.964 131.812 160.072 131.228 160.072ZM136.42 160V153.64H137.572V160H136.42ZM136.996 152.416C136.772 152.416 136.584 152.344 136.432 152.2C136.288 152.056 136.216 151.88 136.216 151.672C136.216 151.456 136.288 151.276 136.432 151.132C136.584 150.988 136.772 150.916 136.996 150.916C137.22 150.916 137.404 150.988 137.548 151.132C137.7 151.268 137.776 151.44 137.776 151.648C137.776 151.864 137.704 152.048 137.56 152.2C137.416 152.344 137.228 152.416 136.996 152.416ZM141.476 160.072C140.948 160.072 140.444 160 139.964 159.856C139.492 159.712 139.12 159.536 138.848 159.328L139.328 158.416C139.6 158.6 139.936 158.756 140.336 158.884C140.736 159.012 141.144 159.076 141.56 159.076C142.096 159.076 142.48 159 142.712 158.848C142.952 158.696 143.072 158.484 143.072 158.212C143.072 158.012 143 157.856 142.856 157.744C142.712 157.632 142.52 157.548 142.28 157.492C142.048 157.436 141.788 157.388 141.5 157.348C141.212 157.3 140.924 157.244 140.636 157.18C140.348 157.108 140.084 157.012 139.844 156.892C139.604 156.764 139.412 156.592 139.268 156.376C139.124 156.152 139.052 155.856 139.052 155.488C139.052 155.104 139.16 154.768 139.376 154.48C139.592 154.192 139.896 153.972 140.288 153.82C140.688 153.66 141.16 153.58 141.704 153.58C142.12 153.58 142.54 153.632 142.964 153.736C143.396 153.832 143.748 153.972 144.02 154.156L143.528 155.068C143.24 154.876 142.94 154.744 142.628 154.672C142.316 154.6 142.004 154.564 141.692 154.564C141.188 154.564 140.812 154.648 140.564 154.816C140.316 154.976 140.192 155.184 140.192 155.44C140.192 155.656 140.264 155.824 140.408 155.944C140.56 156.056 140.752 156.144 140.984 156.208C141.224 156.272 141.488 156.328 141.776 156.376C142.064 156.416 142.352 156.472 142.64 156.544C142.928 156.608 143.188 156.7 143.42 156.82C143.66 156.94 143.852 157.108 143.996 157.324C144.148 157.54 144.224 157.828 144.224 158.188C144.224 158.572 144.112 158.904 143.888 159.184C143.664 159.464 143.348 159.684 142.94 159.844C142.532 159.996 142.044 160.072 141.476 160.072Z" fill="#919395" fill-opacity="0.8"/>
<path d="M99.1221 97.0908V129.153M115.153 113.122H83.0908" stroke="#272B30" stroke-opacity="0.25" stroke-width="4" stroke-linecap="round" stroke-linejoin="round"/>
</svg>
