<svg width="75" height="75" viewBox="0 0 75 75" fill="none" xmlns="http://www.w3.org/2000/svg">
<circle cx="37.5" cy="37.5" r="37.5" fill="#FC671A"/>
<path d="M55.8125 36.0625C55.9375 36.3542 56 36.6667 56 37C56 37.3333 55.9375 37.6458 55.8125 37.9375C54.0625 41.2708 51.6042 43.9583 48.4375 46C45.2708 48 41.7917 49 38 49C35.5 49 33.0833 48.5417 30.75 47.625C28.4583 46.6667 26.4167 45.375 24.625 43.75C22.8333 42.0833 21.3542 40.1458 20.1875 37.9375C20.0625 37.6458 20 37.3333 20 37C20 36.6667 20.0625 36.3542 20.1875 36.0625C21.9375 32.7292 24.3958 30.0625 27.5625 28.0625C30.7292 26.0208 34.2083 25 38 25C41.7917 25 45.2708 26.0208 48.4375 28.0625C51.6042 30.0625 54.0625 32.7292 55.8125 36.0625ZM38 46C40.5 46 42.625 45.125 44.375 43.375C46.125 41.625 47 39.5 47 37C47 34.5 46.125 32.375 44.375 30.625C42.625 28.875 40.5 28 38 28C35.5 28 33.375 28.875 31.625 30.625C29.875 32.375 29 34.5 29 37C29 39.5 29.875 41.625 31.625 43.375C33.375 45.125 35.5 46 38 46ZM38 31C39.6667 31 41.0833 31.5833 42.25 32.75C43.4167 33.9167 44 35.3333 44 37C44 38.625 43.4167 40.0417 42.25 41.25C41.0833 42.4167 39.6667 43 38 43C36.375 43 34.9583 42.4167 33.75 41.25C32.5833 40.0417 32 38.625 32 37C32 36.4583 32.0833 35.9375 32.25 35.4375C32.75 35.8125 33.3333 36 34 36C34.8333 36 35.5417 35.7083 36.125 35.125C36.7083 34.5417 37 33.8333 37 33C37 32.3333 36.8125 31.75 36.4375 31.25C36.9375 31.0833 37.4583 31 38 31Z" fill="white" fill-opacity="0.8"/>
</svg>
