<svg width="75" height="75" viewBox="0 0 75 75" fill="none" xmlns="http://www.w3.org/2000/svg">
<circle cx="37.5" cy="37.5" r="37.5" fill="#0068FF"/>
<path d="M25.675 20C27.1005 20 28.4677 20.5762 29.4757 21.6018C30.4837 22.6273 31.05 24.0183 31.05 25.4688C31.05 26.9192 30.4837 28.3102 29.4757 29.3357C28.4677 30.3613 27.1005 30.9375 25.675 30.9375C24.2495 30.9375 22.8823 30.3613 21.8743 29.3357C20.8663 28.3102 20.3 26.9192 20.3 25.4688C20.3 24.0183 20.8663 22.6273 21.8743 21.6018C22.8823 20.5762 24.2495 20 25.675 20ZM50.4 20C51.8255 20 53.1927 20.5762 54.2007 21.6018C55.2087 22.6273 55.775 24.0183 55.775 25.4688C55.775 26.9192 55.2087 28.3102 54.2007 29.3357C53.1927 30.3613 51.8255 30.9375 50.4 30.9375C48.9745 30.9375 47.6073 30.3613 46.5993 29.3357C45.5913 28.3102 45.025 26.9192 45.025 25.4688C45.025 24.0183 45.5913 22.6273 46.5993 21.6018C47.6073 20.5762 48.9745 20 50.4 20ZM16 40.4189C16 36.3926 19.2116 33.125 23.1689 33.125H26.0378C27.1061 33.125 28.1206 33.3643 29.0344 33.7881C28.947 34.2803 28.9067 34.793 28.9067 35.3125C28.9067 37.9238 30.0355 40.2686 31.8159 41.875H17.4311C16.645 41.875 16 41.2188 16 40.4189ZM43.2311 41.875H43.1841C44.9713 40.2686 46.0933 37.9238 46.0933 35.3125C46.0933 34.793 46.0463 34.2871 45.9656 33.7881C46.8794 33.3574 47.8939 33.125 48.9622 33.125H51.8311C55.7884 33.125 59 36.3926 59 40.4189C59 41.2256 58.355 41.875 57.5689 41.875H43.2311ZM31.05 35.3125C31.05 33.572 31.7296 31.9028 32.9392 30.6721C34.1488 29.4414 35.7894 28.75 37.5 28.75C39.2106 28.75 40.8512 29.4414 42.0608 30.6721C43.2705 31.9028 43.95 33.572 43.95 35.3125C43.95 37.053 43.2705 38.7222 42.0608 39.9529C40.8512 41.1836 39.2106 41.875 37.5 41.875C35.7894 41.875 34.1488 41.1836 32.9392 39.9529C31.7296 38.7222 31.05 37.053 31.05 35.3125ZM24.6 53.1748C24.6 48.1436 28.6111 44.0625 33.5561 44.0625H41.4439C46.3889 44.0625 50.4 48.1436 50.4 53.1748C50.4 54.1797 49.6005 55 48.6061 55H26.3939C25.4062 55 24.6 54.1865 24.6 53.1748Z" fill="white" fill-opacity="0.8"/>
</svg>
