<svg width="48" height="64" viewBox="0 0 48 64" fill="none" xmlns="http://www.w3.org/2000/svg">
<path d="M12.2939 48.9843L11.2222 53.205M12.2939 48.9843L13.0358 53.205M12.2939 48.9843L16.828 49.701M12.2939 48.9843L16.828 48.4269M11.2222 53.205L15.1792 59.6554M11.2222 53.205H13.0358M15.1792 59.6554L22.5986 61.7259M15.1792 59.6554L16.828 58.3016M22.5986 61.7259L16.828 58.3016M22.5986 61.7259L21.362 55.594M22.5986 61.7259V53.205M22.5986 61.7259L23.7527 52.7272M22.5986 61.7259L24.5771 63M22.5986 61.7259L24.5771 59.1776M16.828 58.3016L13.0358 53.205M16.828 58.3016L21.362 55.594M13.0358 53.205L16.828 49.701M16.828 49.701V48.4269M16.828 49.701L21.362 55.594M16.828 48.4269L19.7133 50.8159M22.5986 53.205L21.362 55.594M22.5986 53.205L19.7133 50.8159M23.7527 52.7272L25.7312 56.5496M23.7527 52.7272L26.8441 49.2631M29.9355 45.799L29.1936 56.5496M29.9355 45.799L27.0928 48.9843M29.9355 45.799L30.9247 47.531M32.3262 61.7259L29.1936 56.5496M32.3262 61.7259L31.4194 62.0007M32.3262 61.7259L35.2115 61.0091M32.3262 61.7259L33.4253 59.1776M24.5771 63H28.1219L31.4194 62.0007M24.5771 63L26.4731 61.7259M24.5771 59.1776L26.4731 61.7259M24.5771 59.1776L25.7312 56.5496M26.4731 61.7259L29.1936 56.5496M29.1936 56.5496H25.7312M31.4194 62.0007L35.2115 63M35.2115 63V61.0091M35.2115 63L41.6416 59.1776M35.2115 61.0091L33.4253 59.1776M35.2115 61.0091L40.3226 57.5052M33.4253 59.1776L35.2115 55.0366L34.7566 54.2402M33.4253 51.9093L34.2222 50.9752M33.4253 51.9093L34.7566 54.2402M33.4253 51.9093L30.9247 47.531M34.2222 50.9752L42.9606 48.9843M34.2222 50.9752L36.9427 52.7272M42.9606 48.9843L41.6416 59.1776M42.9606 48.9843L40.3226 57.5052M42.9606 48.9843L36.9427 52.7272M41.6416 59.1776L40.3226 57.5052M40.3226 57.5052L36.9427 52.7272M36.9427 52.7272L34.7566 54.2402M1.74194 24.3773L19.7133 50.8159M1.74194 24.3773L5.36918 26.7663M1.74194 24.3773L1 12.7507M5.36918 26.7663L24.5771 50.9752M5.36918 26.7663L1 12.7507M5.36918 26.7663L13.0358 22.0679M1 12.7507L12.2939 17.9269M1 12.7507L13.0358 22.0679M12.2939 17.9269L13.0358 22.0679M12.2939 17.9269L22.5986 35.6346M13.0358 22.0679L26.8441 49.2631M26.8441 49.2631L27.0928 48.9843M28.6989 46.1175L27.0928 48.9843M28.6989 46.1175L30.2282 43.5692M28.6989 46.1175L23.7527 37.6178M38.5914 29.6332L46.7527 24.9347M38.5914 29.6332L38.2617 33.1371M38.5914 29.6332L32.9044 39.1097M46.7527 24.9347L47 34.5705M46.7527 24.9347L44.4444 36.2428M46.7527 24.9347L38.2617 33.1371M47 34.5705L36.6129 50.1789M47 34.5705L44.4444 36.2428M44.4444 36.2428L33.1505 50.9752M38.2617 33.1371L30.9247 47.531M30.2282 43.5692L33.4253 18.8029M30.2282 43.5692L32.9044 39.1097M33.4253 18.8029L37.5197 14.1841M33.4253 18.8029L28.1219 2M33.4253 18.8029L28.6989 23.0235L23.0932 19.3603M37.5197 14.1841L32.9044 39.1097M37.5197 14.1841L28.1219 2M22.5986 35.6346L20.4552 16.0157M22.5986 35.6346L23.7527 37.6178M20.4552 16.0157L28.1219 2M20.4552 16.0157L23.0932 19.3603M28.1219 2L23.0932 19.3603M23.0932 19.3603L23.7527 37.6178" stroke="#0068FF" stroke-width="1.24242"/>
</svg>
