<svg width="46" height="64" viewBox="0 0 46 64" fill="none" xmlns="http://www.w3.org/2000/svg">
<path d="M1 22.2998L3.22645 31.4665M1 22.2998H9.31062M1 22.2998L8.6493 29.7046M1 22.2998L10.6553 26.2252M3.22645 31.4665L8.6493 29.7046M3.22645 31.4665L20.5752 43.3989M8.6493 29.7046L10.6553 26.2252M8.6493 29.7046L18.3046 36.4848M10.6553 26.2252L9.31062 22.2998M10.6553 26.2252L16.2325 30.2399M9.31062 22.2998L15.02 26.2252L16.2325 30.2399M20.5752 43.3989L18.3046 36.4848M20.5752 43.3989L22.2505 48.3503M18.3046 36.4848L16.2325 30.2399M36.4028 62L22.2505 48.3503M36.4028 62L36.8216 43.3989M36.4028 62L34.3968 48.8856M36.4028 62L29.5691 51.3389M22.2505 48.3503L10.6553 13.9583M22.2505 48.3503L29.5691 51.3389M10.6553 13.9583L18.7014 16.5232M10.6553 13.9583L16.2325 1M29.5691 51.3389L34.3968 48.8856M29.5691 51.3389L18.7014 16.5232M34.3968 48.8856L24.0802 14.3598M34.3968 48.8856L35.6092 46.1422L36.8216 43.3989M36.8216 43.3989L36.2272 41.5031M25.8216 8.31554L25.1148 10.7689L24.0802 14.3598M25.8216 8.31554L16.2325 1M25.8216 8.31554L29.8776 21.2516M24.0802 14.3598L18.7014 16.5232M24.0802 14.3598L16.2325 1M18.7014 16.5232L16.2325 1M36.2272 41.5031L45 16.5232M36.2272 41.5031L35.514 39.2282L34.8007 36.9532M45 16.5232L41.1643 18.8428M45 16.5232L43.3247 2.47203M41.1643 18.8428L34.8007 36.9532M41.1643 18.8428L43.3247 2.47203M41.1643 18.8428L36.6012 17.8391M34.8007 36.9532L33.6643 33.3289L32.5279 29.7046M32.5279 29.7046L36.6012 17.8391M32.5279 29.7046L29.8776 21.2516M36.6012 17.8391L32.7655 12.6201M36.6012 17.8391L43.3247 2.47203M32.7655 12.6201L29.8776 21.2516M32.7655 12.6201L43.3247 2.47203" stroke="#0068FF" stroke-width="1.28094"/>
</svg>
