<svg width="11" height="11" viewBox="0 0 11 11" fill="none" xmlns="http://www.w3.org/2000/svg">
<path d="M9.17969 1.77344C10.2266 2.82031 10.75 4.04688 10.75 5.45312C10.75 6.89062 10.2344 8.11719 9.20312 9.13281C8.17188 10.1484 6.9375 10.6562 5.5 10.6562C4.60938 10.6562 3.78125 10.4453 3.01562 10.0234L0.25 10.75L1 8.05469C0.53125 7.25781 0.296875 6.39062 0.296875 5.45312C0.296875 4.01562 0.804688 2.78906 1.82031 1.77344C2.83594 0.757813 4.0625 0.25 5.5 0.25C6.9375 0.25 8.16406 0.757813 9.17969 1.77344ZM5.5 9.78906C6.6875 9.78906 7.71094 9.36719 8.57031 8.52344C9.42969 7.66406 9.85938 6.64062 9.85938 5.45312C9.875 4.29688 9.4375 3.28125 8.54688 2.40625C7.70312 1.5625 6.6875 1.14062 5.5 1.14062C4.3125 1.14062 3.28906 1.5625 2.42969 2.40625C1.58594 3.25 1.16406 4.26562 1.16406 5.45312C1.16406 6.28125 1.39062 7.04688 1.84375 7.75L1.9375 7.91406L1.49219 9.50781L3.13281 9.08594L3.29688 9.17969C3.96875 9.58594 4.70312 9.78906 5.5 9.78906ZM7.86719 6.53125C8.02344 6.60938 8.10938 6.66406 8.125 6.69531C8.17188 6.78906 8.14062 7 8.03125 7.32812C7.98438 7.45312 7.85938 7.58594 7.65625 7.72656C7.46875 7.85156 7.30469 7.92188 7.16406 7.9375C6.75781 8 6.23438 7.89062 5.59375 7.60938C4.82812 7.28125 4.09375 6.625 3.39062 5.64062C3.03125 5.15625 2.85156 4.71094 2.85156 4.30469C2.85156 3.91406 3 3.54688 3.29688 3.20312C3.40625 3.10938 3.52344 3.0625 3.64844 3.0625C3.77344 3.0625 3.85938 3.0625 3.90625 3.0625C4.04688 3.0625 4.14062 3.13281 4.1875 3.27344C4.45312 3.91406 4.58594 4.23438 4.58594 4.23438C4.63281 4.32812 4.64062 4.40625 4.60938 4.46875C4.54688 4.60938 4.46875 4.73438 4.375 4.84375C4.28125 4.9375 4.22656 4.99219 4.21094 5.00781C4.19531 5.02344 4.20312 5.07812 4.23438 5.17188C4.45312 5.57812 4.6875 5.88281 4.9375 6.08594C5.20312 6.28906 5.55469 6.5 5.99219 6.71875C6.11719 6.78125 6.21094 6.77344 6.27344 6.69531C6.47656 6.46094 6.61719 6.28906 6.69531 6.17969C6.75781 6.08594 6.85156 6.0625 6.97656 6.10938C7.10156 6.15625 7.39844 6.29688 7.86719 6.53125Z" fill="white"/>
</svg>
