<svg width="75" height="75" viewBox="0 0 75 75" fill="none" xmlns="http://www.w3.org/2000/svg">
    <g filter="url(#filter0_d_645_814)">
        <rect x="18" y="8" width="39" height="39" rx="19.5" fill="#888888" />
    </g>
    <path
        d="M47.2786 24.9609C47.4349 24.8438 47.6693 24.9609 47.6693 25.1562V33.125C47.6693 34.1797 46.8099 35 45.7943 35H29.5443C28.4896 35 27.6693 34.1797 27.6693 33.125V25.1562C27.6693 24.9609 27.8646 24.8438 28.0208 24.9609C28.9193 25.6641 30.0521 26.5234 34.0365 29.4141C34.8568 30 36.263 31.2891 37.6693 31.2891C39.0365 31.2891 40.4818 30 41.263 29.4141C45.2474 26.5234 46.3802 25.6641 47.2786 24.9609ZM37.6693 30C36.7318 30.0391 35.4427 28.8672 34.7786 28.3984C29.5833 24.6484 29.1927 24.2969 28.0208 23.3594C27.7865 23.2031 27.6693 22.9297 27.6693 22.6172V21.875C27.6693 20.8594 28.4896 20 29.5443 20H45.7943C46.8099 20 47.6693 20.8594 47.6693 21.875V22.6172C47.6693 22.9297 47.513 23.2031 47.2786 23.3594C46.1068 24.2969 45.7161 24.6484 40.5208 28.3984C39.8568 28.8672 38.5677 30.0391 37.6693 30Z"
        fill="white" />
    <defs>
        <filter id="filter0_d_645_814" x="0" y="0" width="75" height="75"
            filterUnits="userSpaceOnUse" color-interpolation-filters="sRGB">
            <feFlood flood-opacity="0" result="BackgroundImageFix" />
            <feColorMatrix in="SourceAlpha" type="matrix"
                values="0 0 0 0 0 0 0 0 0 0 0 0 0 0 0 0 0 0 127 0" result="hardAlpha" />
            <feOffset dy="10" />
            <feGaussianBlur stdDeviation="9" />
            <feColorMatrix type="matrix" values="0 0 0 0 0 0 0 0 0 0 0 0 0 0 0 0 0 0 0.08 0" />
            <feBlend mode="normal" in2="BackgroundImageFix" result="effect1_dropShadow_645_814" />
            <feBlend mode="normal" in="SourceGraphic" in2="effect1_dropShadow_645_814"
                result="shape" />
        </filter>
    </defs>
</svg>
    