<svg width="75" height="75" viewBox="0 0 75 75" fill="none" xmlns="http://www.w3.org/2000/svg">
    <g filter="url(#filter0_d_645_807)">
        <rect x="18" y="8" width="39" height="39" rx="19.5" fill="#58A43D" />
    </g>
    <path
        d="M43.5938 21.3281C45.2344 22.9688 46.25 25.1172 46.25 27.4609C46.25 32.2266 42.2656 36.1328 37.4609 36.1328C36.0156 36.1328 34.6094 35.7422 33.3203 35.0781L28.75 36.25L29.9609 31.7578C29.2188 30.4688 28.7891 28.9844 28.7891 27.4219C28.7891 22.6562 32.6953 18.75 37.4609 18.75C39.8047 18.75 41.9922 19.6875 43.5938 21.3281ZM37.4609 34.6484C41.4453 34.6484 44.7656 31.4062 44.7656 27.4609C44.7656 25.5078 43.9453 23.7109 42.5781 22.3438C41.2109 20.9766 39.4141 20.2344 37.5 20.2344C33.5156 20.2344 30.2734 23.4766 30.2734 27.4219C30.2734 28.7891 30.6641 30.1172 31.3672 31.2891L31.5625 31.5625L30.8203 34.2188L33.5547 33.4766L33.7891 33.6328C34.9219 34.2969 36.1719 34.6484 37.4609 34.6484ZM41.4453 29.2578C41.6406 29.375 41.7969 29.4141 41.8359 29.5312C41.9141 29.6094 41.9141 30.0391 41.7188 30.5469C41.5234 31.0547 40.6641 31.5234 40.2734 31.5625C39.5703 31.6797 39.0234 31.6406 37.6562 31.0156C35.4688 30.0781 34.0625 27.8906 33.9453 27.7734C33.8281 27.6172 33.0859 26.6016 33.0859 25.5078C33.0859 24.4531 33.6328 23.9453 33.8281 23.7109C34.0234 23.4766 34.2578 23.4375 34.4141 23.4375C34.5312 23.4375 34.6875 23.4375 34.8047 23.4375C34.9609 23.4375 35.1172 23.3984 35.3125 23.8281C35.4688 24.2578 35.9375 25.3125 35.9766 25.4297C36.0156 25.5469 36.0547 25.6641 35.9766 25.8203C35.5859 26.6406 35.1172 26.6016 35.3516 26.9922C36.2109 28.4375 37.0312 28.9453 38.3203 29.5703C38.5156 29.6875 38.6328 29.6484 38.7891 29.5312C38.9062 29.375 39.3359 28.8672 39.4531 28.6719C39.6094 28.4375 39.7656 28.4766 39.9609 28.5547C40.1562 28.6328 41.2109 29.1406 41.4453 29.2578Z"
        fill="white" />
    <defs>
        <filter id="filter0_d_645_807" x="0" y="0" width="75" height="75"
            filterUnits="userSpaceOnUse" color-interpolation-filters="sRGB">
            <feFlood flood-opacity="0" result="BackgroundImageFix" />
            <feColorMatrix in="SourceAlpha" type="matrix"
                values="0 0 0 0 0 0 0 0 0 0 0 0 0 0 0 0 0 0 127 0" result="hardAlpha" />
            <feOffset dy="10" />
            <feGaussianBlur stdDeviation="9" />
            <feColorMatrix type="matrix" values="0 0 0 0 0 0 0 0 0 0 0 0 0 0 0 0 0 0 0.08 0" />
            <feBlend mode="normal" in2="BackgroundImageFix" result="effect1_dropShadow_645_807" />
            <feBlend mode="normal" in="SourceGraphic" in2="effect1_dropShadow_645_807"
                result="shape" />
        </filter>
    </defs>
</svg>