<svg width="32" height="28" viewBox="0 0 32 28" fill="none" xmlns="http://www.w3.org/2000/svg">
<path d="M10.3616 27.6305C11.6333 27.6305 12.6642 26.5996 12.6642 25.3279C12.6642 24.0563 11.6333 23.0254 10.3616 23.0254C9.08997 23.0254 8.05908 24.0563 8.05908 25.3279C8.05908 26.5996 9.08997 27.6305 10.3616 27.6305Z" fill="#0068FF" fill-opacity="0.8"/>
<path d="M26.4793 27.6305C27.751 27.6305 28.7819 26.5996 28.7819 25.3279C28.7819 24.0563 27.751 23.0254 26.4793 23.0254C25.2076 23.0254 24.1768 24.0563 24.1768 25.3279C24.1768 26.5996 25.2076 27.6305 26.4793 27.6305Z" fill="#0068FF" fill-opacity="0.8"/>
<path d="M9.77001 17.2691H28.5747L31.3377 3.45383H7.33147L6.72201 0H0V2.30255H4.79075L8.24457 21.8742H28.7819V19.5717H10.1758L9.77001 17.2691Z" fill="#0068FF" fill-opacity="0.8"/>
</svg>
